<svg fill="none" xmlns="http://www.w3.org/2000/svg" viewBox="0 0 16 16"><mask id="a" style="mask-type:alpha" maskUnits="userSpaceOnUse" x="0" y="0" width="16" height="16"><path fill="#D9D9D9" d="M0 0h16v16H0z"/></mask><g mask="url(#a)"><path d="M8 13.333c-1.49 0-2.75-.517-3.784-1.55C3.183 10.75 2.666 9.49 2.666 8c0-1.489.517-2.75 1.55-3.784 1.033-1.033 2.294-1.55 3.783-1.55.767 0 1.5.159 2.2.476.7.316 1.3.769 1.8 1.358V2.667h1.334v4.666H8.666V6h2.8a3.891 3.891 0 0 0-1.458-1.467A3.952 3.952 0 0 0 7.999 4c-1.11 0-2.055.389-2.833 1.167C4.388 5.944 3.999 6.889 3.999 8c0 1.111.39 2.055 1.167 2.833C5.944 11.611 6.888 12 7.999 12c.856 0 1.628-.245 2.317-.733a3.873 3.873 0 0 0 1.45-1.934h1.4a5.263 5.263 0 0 1-1.9 2.883 5.173 5.173 0 0 1-3.267 1.117Z" fill="currentColor"/></g></svg>
