<?xml version="1.0" encoding="utf-8"?>
<svg xmlns="http://www.w3.org/2000/svg" viewBox="269.1327 108.9899 10.667 10.6673" width="10.667px" height="10.6673px">
  <path d="M 8 2.666 C 6.51 2.666 5.25 3.183 4.216 4.216 C 3.183 5.249 2.666 6.509 2.666 7.999 C 2.666 9.488 3.183 10.749 4.216 11.783 C 5.249 12.816 6.51 13.333 7.999 13.333 C 8.766 13.333 9.499 13.174 10.199 12.857 C 10.899 12.541 11.499 12.088 11.999 11.499 L 11.999 13.332 L 13.333 13.332 L 13.333 8.666 L 8.666 8.666 L 8.666 9.999 L 11.466 9.999 C 11.121 10.611 10.617 11.118 10.008 11.466 C 9.398 11.82 8.704 12.004 7.999 11.999 C 6.889 11.999 5.944 11.61 5.166 10.832 C 4.388 10.055 3.999 9.11 3.999 7.999 C 3.999 6.888 4.389 5.944 5.166 5.166 C 5.944 4.388 6.888 3.999 7.999 3.999 C 8.855 3.999 9.627 4.244 10.316 4.732 C 10.993 5.206 11.501 5.883 11.766 6.666 L 13.166 6.666 C 12.875 5.519 12.206 4.503 11.266 3.783 C 10.337 3.048 9.184 2.654 7.999 2.666 L 8 2.666 Z" fill="currentColor" style="transform-origin: 7.9995px 7.99937px;" transform="matrix(-1, 0, 0, -1, 266.46670627594, 106.324195861816)"/>
</svg>