<svg xmlns="http://www.w3.org/2000/svg" viewBox="0 0 217.203 164.277"><g data-name="Group 1"><path data-name="Path 1" d="M147.238 69.954H22.431V22.415h124.807Zm-122.11-2.7h119.413V25.112H25.128Z" fill="currentColor"/><path data-name="Path 2" d="M181.962 116.426H11.214V11.206h170.748Zm-168.051-2.7H179.27V13.903H13.911Z" fill="currentColor"/><path data-name="Path 3" d="M217.203 164.277H0V0h217.2Zm-214.506-2.7h211.809V2.697H2.697Z" fill="currentColor"/><path data-name="Path 4" d="M49.882 46.767c0-4.779-2.934-7.04-7.183-7.04h-2.683v14.08h2.683c4.25 0 7.183-2.263 7.183-7.04ZM36.996 36.99h5.645c5.957 0 10.318 3.381 10.318 9.777s-4.361 9.776-10.318 9.776h-5.645Z" fill="currentColor" fill-rule="evenodd"/><path data-name="Path 5" d="M73.175 49.588c0 4.72-3.215 7.348-7.634 7.348s-7.629-2.627-7.629-7.348v-12.6h3.018V49.5a4.362 4.362 0 0 0 4.611 4.69 4.364 4.364 0 0 0 4.618-4.69V36.992h3.016Z" fill="currentColor" fill-rule="evenodd"/><path data-name="Path 6" d="M77.248 36.991h15.094v2.741h-6.041v16.812h-3.016V39.732h-6.039Z" fill="currentColor" fill-rule="evenodd"/><path data-name="Path 7" d="M113.273 51.795c-2.038 3.324-4.333 5.141-8.552 5.141-5.565 0-9.7-4.193-9.7-10.168a9.789 9.789 0 0 1 9.84-10.165 8.853 8.853 0 0 1 8.359 5.056l-2.4 1.731c-1.4-2.708-3.33-4.05-6.011-4.05-3.69 0-6.711 3.128-6.711 7.432 0 4.245 2.821 7.428 6.683 7.428 2.626 0 4.693-1.257 6.176-4.049Z" fill="currentColor" fill-rule="evenodd"/><path data-name="Path 8" d="M118.288 36.991h3.016v8.211h9.112v-8.211h3.023v19.553h-3.023v-8.605h-9.112v8.605h-3.016Z" fill="currentColor" fill-rule="evenodd"/><path data-name="Path 9" d="M38.929 92.109c0-4.778-2.933-7.04-7.182-7.04h-2.684v14.08h2.684c4.25 0 7.182-2.261 7.182-7.04Zm-12.885-9.776h5.645c5.956 0 10.317 3.381 10.317 9.776s-4.361 9.776-10.317 9.776h-5.645Z" fill="currentColor" fill-rule="evenodd"/><path data-name="Path 10" d="M51.849 101.885h3.016V82.332h-3.016Z" fill="currentColor" fill-rule="evenodd"/><path data-name="Path 11" d="M80.289 98.868a6.588 6.588 0 0 1-6.094 3.407c-5.508 0-9.535-4.273-9.535-10.168a9.882 9.882 0 0 1 9.867-10.167 9.123 9.123 0 0 1 8.334 4.78l-2.295 1.591a6.6 6.6 0 0 0-6.094-3.688c-3.662 0-6.735 2.934-6.735 7.486 0 4.442 2.655 7.43 6.511 7.43 3.55 0 5.34-2.263 5.761-5.305h-6.6v-2.489h9.615v10.139h-2.01Z" fill="currentColor" fill-rule="evenodd"/><path data-name="Path 12" d="M93.497 101.885h3.016V82.332h-3.016Z" fill="currentColor" fill-rule="evenodd"/><path data-name="Path 13" d="M105.26 82.332h15.091v2.736h-6.039v16.817h-3.016V85.068h-6.039Z" fill="currentColor" fill-rule="evenodd"/><path data-name="Path 14" d="m133.735 87.64-2.378 6.175h6.094l-2.372-6.175c-.394-1.006-.671-1.871-.671-1.871s-.278.865-.672 1.871Zm-.839-5.306h3.023l7.823 19.553h-3.185l-2.1-5.446h-8.106l-2.1 5.446h-3.187Z" fill="currentColor" fill-rule="evenodd"/><path data-name="Path 15" d="M152.381 82.332h3.018v16.871h9.812v2.682h-12.83Z" fill="currentColor" fill-rule="evenodd"/><path data-name="Path 16" d="m24.558 134.023-2.378 6.175h6.094l-2.378-6.175c-.39-1.006-.671-1.871-.671-1.871s-.278.865-.667 1.871Zm-.841-5.306h3.019l7.828 19.553h-3.189l-2.1-5.446h-8.102l-2.1 5.446h-3.186Z" fill="currentColor" fill-rule="evenodd"/><path data-name="Path 17" d="M57.671 145.252a6.584 6.584 0 0 1-6.094 3.407c-5.507 0-9.534-4.273-9.534-10.167a9.882 9.882 0 0 1 9.866-10.168 9.122 9.122 0 0 1 8.334 4.778l-2.294 1.591a6.6 6.6 0 0 0-6.094-3.688c-3.662 0-6.735 2.934-6.735 7.487 0 4.441 2.655 7.428 6.512 7.428 3.55 0 5.34-2.263 5.761-5.3h-6.6v-2.491h9.615v10.14h-2.009Z" fill="currentColor" fill-rule="evenodd"/><path data-name="Path 18" d="M71.506 128.717h12.857v2.682h-9.841v5.418h9.059v2.682h-9.057v6.089h9.924v2.682h-12.94Z" fill="currentColor" fill-rule="evenodd"/><path data-name="Path 19" d="M95.05 128.716h3.073l8.781 13.626a15.315 15.315 0 0 1 .841 1.481v-15.107h2.9v19.554h-3.073l-8.778-13.628a14.9 14.9 0 0 1-.837-1.479v15.107H95.05Z" fill="currentColor" fill-rule="evenodd"/><path data-name="Path 20" d="M139.362 143.521c-2.038 3.324-4.333 5.14-8.552 5.14-5.565 0-9.7-4.192-9.7-10.167a9.789 9.789 0 0 1 9.838-10.168 8.851 8.851 0 0 1 8.357 5.055l-2.394 1.733c-1.4-2.708-3.33-4.05-6.011-4.05-3.69 0-6.711 3.128-6.711 7.432 0 4.245 2.821 7.428 6.682 7.428 2.627 0 4.694-1.257 6.177-4.05Z" fill="currentColor" fill-rule="evenodd"/><path data-name="Path 21" d="M149.6 148.269h3.016v-19.552H149.6Z" fill="currentColor" fill-rule="evenodd"/><path data-name="Path 22" d="M164.009 128.717h12.857v2.682h-9.841v5.418h9.058v2.682h-9.058v6.089h9.924v2.682h-12.94Z" fill="currentColor" fill-rule="evenodd"/><path data-name="Path 23" d="M194.917 136.928c4.216.81 6.316 2.57 6.316 5.837 0 3.157-2.738 5.9-7.156 5.9-4.665 0-7.377-2.682-8.02-6.173l2.655-1.368c.555 3.211 2.373 4.916 5.339 4.916 2.6 0 4.163-1.425 4.163-3.156 0-2.041-1.618-2.936-4.974-3.576-3.633-.7-6.288-2.459-6.288-5.755 0-3.1 2.766-5.224 6.706-5.224a7.182 7.182 0 0 1 7.24 4.862l-2.4 1.4a4.823 4.823 0 0 0-4.866-3.633c-2.067 0-3.828.869-3.828 2.544 0 1.76 1.678 2.765 5.116 3.434" fill="currentColor" fill-rule="evenodd"/><g data-name="Stroke-1"><path data-name="Path 24" d="M147.238 69.954H22.431V22.415h124.807Zm-122.11-2.7h119.413V25.112H25.128Z" fill="currentColor"/></g><g data-name="Stroke-2"><path data-name="Path 25" d="M181.962 116.426H11.214V11.206h170.748Zm-168.051-2.7H179.27V13.903H13.911Z" fill="currentColor"/></g><g data-name="Fill-5"><path data-name="Path 26" d="M49.882 46.767c0-4.779-2.934-7.04-7.183-7.04h-2.683v14.08h2.683c4.25 0 7.183-2.263 7.183-7.04ZM36.996 36.99h5.645c5.957 0 10.318 3.381 10.318 9.777s-4.361 9.776-10.318 9.776h-5.645Z" fill="currentColor" fill-rule="evenodd"/></g><g data-name="Fill-6"><path data-name="Path 27" d="M73.175 49.588c0 4.72-3.215 7.348-7.634 7.348s-7.629-2.627-7.629-7.348v-12.6h3.018V49.5a4.362 4.362 0 0 0 4.611 4.69 4.364 4.364 0 0 0 4.618-4.69V36.992h3.016Z" fill="currentColor" fill-rule="evenodd"/></g><g data-name="Fill-7"><path data-name="Path 28" d="M77.248 36.991h15.094v2.741h-6.041v16.812h-3.016V39.732h-6.039Z" fill="currentColor" fill-rule="evenodd"/></g><g data-name="Fill-8"><path data-name="Path 29" d="M113.273 51.795c-2.038 3.324-4.333 5.141-8.552 5.141-5.565 0-9.7-4.193-9.7-10.168a9.789 9.789 0 0 1 9.84-10.165 8.853 8.853 0 0 1 8.359 5.056l-2.4 1.731c-1.4-2.708-3.33-4.05-6.011-4.05-3.69 0-6.711 3.128-6.711 7.432 0 4.245 2.821 7.428 6.683 7.428 2.626 0 4.693-1.257 6.176-4.049Z" fill="currentColor" fill-rule="evenodd"/></g><g data-name="Fill-9"><path data-name="Path 30" d="M118.288 36.991h3.016v8.211h9.112v-8.211h3.023v19.553h-3.023v-8.605h-9.112v8.605h-3.016Z" fill="currentColor" fill-rule="evenodd"/></g><g data-name="Fill-10"><path data-name="Path 31" d="M38.929 92.109c0-4.778-2.933-7.04-7.182-7.04h-2.684v14.08h2.684c4.25 0 7.182-2.261 7.182-7.04Zm-12.885-9.776h5.645c5.956 0 10.317 3.381 10.317 9.776s-4.361 9.776-10.317 9.776h-5.645Z" fill="currentColor" fill-rule="evenodd"/></g><g data-name="Fill-11"><path data-name="Path 32" d="M51.849 101.885h3.016V82.332h-3.016Z" fill="currentColor" fill-rule="evenodd"/></g><g data-name="Fill-12"><path data-name="Path 33" d="M80.289 98.868a6.588 6.588 0 0 1-6.094 3.407c-5.508 0-9.535-4.273-9.535-10.168a9.882 9.882 0 0 1 9.867-10.167 9.123 9.123 0 0 1 8.334 4.78l-2.295 1.591a6.6 6.6 0 0 0-6.094-3.688c-3.662 0-6.735 2.934-6.735 7.486 0 4.442 2.655 7.43 6.511 7.43 3.55 0 5.34-2.263 5.761-5.305h-6.6v-2.489h9.615v10.139h-2.01Z" fill="currentColor" fill-rule="evenodd"/></g><g data-name="Fill-13"><path data-name="Path 34" d="M93.497 101.885h3.016V82.332h-3.016Z" fill="currentColor" fill-rule="evenodd"/></g><g data-name="Fill-14"><path data-name="Path 35" d="M105.26 82.332h15.091v2.736h-6.039v16.817h-3.016V85.068h-6.039Z" fill="currentColor" fill-rule="evenodd"/></g><g data-name="Fill-15"><path data-name="Path 36" d="m133.735 87.64-2.378 6.175h6.094l-2.372-6.175c-.394-1.006-.671-1.871-.671-1.871s-.278.865-.672 1.871Zm-.839-5.306h3.023l7.823 19.553h-3.185l-2.1-5.446h-8.106l-2.1 5.446h-3.187Z" fill="currentColor" fill-rule="evenodd"/></g><g data-name="Fill-16"><path data-name="Path 37" d="M152.381 82.332h3.018v16.871h9.812v2.682h-12.83Z" fill="currentColor" fill-rule="evenodd"/></g><g data-name="Fill-17"><path data-name="Path 38" d="m24.558 134.023-2.378 6.175h6.094l-2.378-6.175c-.39-1.006-.671-1.871-.671-1.871s-.278.865-.667 1.871Zm-.841-5.306h3.019l7.828 19.553h-3.189l-2.1-5.446h-8.102l-2.1 5.446h-3.186Z" fill="currentColor" fill-rule="evenodd"/></g><g data-name="Fill-18"><path data-name="Path 39" d="M57.671 145.252a6.584 6.584 0 0 1-6.094 3.407c-5.507 0-9.534-4.273-9.534-10.167a9.882 9.882 0 0 1 9.866-10.168 9.122 9.122 0 0 1 8.334 4.778l-2.294 1.591a6.6 6.6 0 0 0-6.094-3.688c-3.662 0-6.735 2.934-6.735 7.487 0 4.441 2.655 7.428 6.512 7.428 3.55 0 5.34-2.263 5.761-5.3h-6.6v-2.491h9.615v10.14h-2.009Z" fill="currentColor" fill-rule="evenodd"/></g><g data-name="Fill-19"><path data-name="Path 40" d="M71.506 128.717h12.857v2.682h-9.841v5.418h9.059v2.682h-9.057v6.089h9.924v2.682h-12.94Z" fill="currentColor" fill-rule="evenodd"/></g><g data-name="Fill-20"><path data-name="Path 41" d="M95.05 128.716h3.073l8.781 13.626a15.315 15.315 0 0 1 .841 1.481v-15.107h2.9v19.554h-3.073l-8.778-13.628a14.9 14.9 0 0 1-.837-1.479v15.107H95.05Z" fill="currentColor" fill-rule="evenodd"/></g><g data-name="Fill-21"><path data-name="Path 42" d="M139.362 143.521c-2.038 3.324-4.333 5.14-8.552 5.14-5.565 0-9.7-4.192-9.7-10.167a9.789 9.789 0 0 1 9.838-10.168 8.851 8.851 0 0 1 8.357 5.055l-2.394 1.733c-1.4-2.708-3.33-4.05-6.011-4.05-3.69 0-6.711 3.128-6.711 7.432 0 4.245 2.821 7.428 6.682 7.428 2.627 0 4.694-1.257 6.177-4.05Z" fill="currentColor" fill-rule="evenodd"/></g><g data-name="Fill-22"><path data-name="Path 43" d="M149.6 148.269h3.016v-19.552H149.6Z" fill="currentColor" fill-rule="evenodd"/></g><g data-name="Fill-23"><path data-name="Path 44" d="M164.009 128.717h12.857v2.682h-9.841v5.418h9.058v2.682h-9.058v6.089h9.924v2.682h-12.94Z" fill="currentColor" fill-rule="evenodd"/></g></g></svg>
