<?xml version="1.0" encoding="utf-8"?><svg xmlns="http://www.w3.org/2000/svg" xmlns:xlink="http://www.w3.org/1999/xlink"><symbol fill="none" viewBox="0 0 16 16" id="arrow-left" xmlns="http://www.w3.org/2000/svg"><path d="M8 13 3 8l5-5" stroke="currentColor" stroke-width="1.5" stroke-miterlimit="4.62"/><path d="M13 8H3" stroke="currentColor" stroke-width="1.5" stroke-miterlimit="4.62" stroke-linejoin="round"/></symbol><symbol fill="none" viewBox="0 0 16 16" id="arrow-right" xmlns="http://www.w3.org/2000/svg"><path d="m8 3 5 5-5 5" stroke="currentColor" stroke-width="1.5" stroke-miterlimit="4.62"/><path d="M3 8h10" stroke="currentColor" stroke-width="1.5" stroke-miterlimit="4.62" stroke-linejoin="round"/></symbol><symbol fill="none" viewBox="0 0 16 16" id="arrow-up-right" xmlns="http://www.w3.org/2000/svg"><path d="M4.464 4.465h7.072v7.071" stroke="currentColor" stroke-width="1.5" stroke-miterlimit="4.62"/><path d="m4.464 11.535 7.071-7.07" stroke="currentColor" stroke-width="1.5" stroke-miterlimit="4.62" stroke-linejoin="round"/></symbol><symbol fill="none" viewBox="0 0 24 24" id="burger" xmlns="http://www.w3.org/2000/svg"><mask id="da" style="mask-type:alpha" maskUnits="userSpaceOnUse" x="0" y="0" width="24" height="24"><path fill="currentColor" d="M0 0h24v24H0z"/></mask><g mask="url(#da)"><path d="M3 18v-2h18v2H3Zm0-5v-2h18v2H3Zm0-5V6h18v2H3Z" fill="currentColor"/></g></symbol><symbol fill="none" viewBox="0 0 24 24" id="chevron-down" xmlns="http://www.w3.org/2000/svg"><mask id="ea" style="mask-type:alpha" maskUnits="userSpaceOnUse" x="0" y="0" width="24" height="24"><path transform="rotate(90 24 0)" fill="#D9D9D9" d="M24 0h24v24H24z"/></mask><g mask="url(#ea)"><path d="M12 12.6 16.6 8 18 9.4l-6 6-6-6L7.4 8l4.6 4.6Z" fill="currentColor"/></g></symbol><symbol fill="none" viewBox="0 0 24 24" id="close" xmlns="http://www.w3.org/2000/svg"><mask id="fa" style="mask-type:alpha" maskUnits="userSpaceOnUse" x="0" y="0" width="24" height="24"><path fill="#D9D9D9" d="M0 0h24v24H0z"/></mask><g mask="url(#fa)"><path d="M6.4 19 5 17.6l5.6-5.6L5 6.4 6.4 5l5.6 5.6L17.6 5 19 6.4 13.4 12l5.6 5.6-1.4 1.4-5.6-5.6L6.4 19Z" fill="currentColor"/></g></symbol><symbol fill="none" viewBox="0 0 16 16" id="external" xmlns="http://www.w3.org/2000/svg"><path d="M4.465 4.464h7.071v7.072" stroke="currentColor" stroke-width="1.5" stroke-miterlimit="4.62"/><path d="m4.465 11.536 7.07-7.071" stroke="currentColor" stroke-width="1.5" stroke-miterlimit="4.62" stroke-linejoin="round"/></symbol><symbol fill="none" viewBox="0 0 16 16" id="loading" xmlns="http://www.w3.org/2000/svg"><mask id="ha" style="mask-type:alpha" maskUnits="userSpaceOnUse" x="0" y="0" width="16" height="16"><path fill="#D9D9D9" d="M0 0h16v16H0z"/></mask><g mask="url(#ha)"><path d="M8 13.333c-1.49 0-2.75-.517-3.784-1.55C3.183 10.75 2.666 9.49 2.666 8c0-1.489.517-2.75 1.55-3.784 1.033-1.033 2.294-1.55 3.783-1.55.767 0 1.5.159 2.2.476.7.316 1.3.769 1.8 1.358V2.667h1.334v4.666H8.666V6h2.8a3.891 3.891 0 0 0-1.458-1.467A3.952 3.952 0 0 0 7.999 4c-1.11 0-2.055.389-2.833 1.167C4.388 5.944 3.999 6.889 3.999 8c0 1.111.39 2.055 1.167 2.833C5.944 11.611 6.888 12 7.999 12c.856 0 1.628-.245 2.317-.733a3.873 3.873 0 0 0 1.45-1.934h1.4a5.263 5.263 0 0 1-1.9 2.883 5.173 5.173 0 0 1-3.267 1.117Z" fill="currentColor"/></g></symbol><symbol fill="none" viewBox="0 0 24 24" id="minus" xmlns="http://www.w3.org/2000/svg"><path d="M19.5 12h-15" stroke="currentColor" stroke-width="1.5" stroke-miterlimit="4.62" stroke-linejoin="round"/></symbol><symbol viewBox="0 0 512 512" id="play" xmlns="http://www.w3.org/2000/svg"><path fill="currentColor" d="M133 440a35.37 35.37 0 0 1-17.5-4.67c-12-6.8-19.46-20-19.46-34.33V111c0-14.37 7.46-27.53 19.46-34.33a35.13 35.13 0 0 1 35.77.45l247.85 148.36a36 36 0 0 1 0 61l-247.89 148.4A35.5 35.5 0 0 1 133 440"/></symbol><symbol fill="none" viewBox="0 0 24 24" id="plus" xmlns="http://www.w3.org/2000/svg"><path d="M12 4.5v15m7.5-7.5h-15" stroke="currentColor" stroke-width="1.5" stroke-miterlimit="4.62" stroke-linejoin="round"/></symbol><symbol viewBox="0 0 24 24" id="share" xmlns="http://www.w3.org/2000/svg"><path fill="currentColor" d="M18 22q-1.25 0-2.125-.875T15 19q0-.175.025-.363t.075-.337l-7.05-4.1q-.425.375-.95.588T6 15q-1.25 0-2.125-.875T3 12q0-1.25.875-2.125T6 9q.575 0 1.1.213t.95.587l7.05-4.1q-.05-.15-.075-.337T15 5q0-1.25.875-2.125T18 2q1.25 0 2.125.875T21 5q0 1.25-.875 2.125T18 8q-.575 0-1.1-.212t-.95-.588L8.9 11.3q.05.15.075.338T9 12q0 .175-.025.363T8.9 12.7l7.05 4.1q.425-.375.95-.587T18 16q1.25 0 2.125.875T21 19q0 1.25-.875 2.125T18 22Z"/></symbol><symbol viewBox="0 0 128 128" id="twitter" xmlns="http://www.w3.org/2000/svg"><path d="M75.916 54.2 122.542 0h-11.05L71.008 47.06 38.672 0H1.376l48.898 71.164L1.376 128h11.05L55.18 78.303 89.328 128h37.296L75.913 54.2ZM60.782 71.79l-4.955-7.086-39.42-56.386h16.972L65.19 53.824l4.954 7.086 41.353 59.15h-16.97L60.782 71.793Z"/></symbol></svg>